# xmcd
#
# Track frame offsets:
# 150
# 3718
# 19970
# 39941
# 57464
# 65066
# 104228
# 135632
# 150261
# 171301
# 199004
#
# Disc length: 3137 seconds
#
#
# Revision: 0
# Processed by: cddbd v1.5.2PL0 Copyright (c) Steve Scherf et al.
# Submitted via: FreeRIP 2.943 
#
DISCID=9a0c3f0b
DTITLE=el cerdo - our bellies sluggish with goat meat
DYEAR=2008
DGENRE=Revival
TTITLE0=pigs
TTITLE1=gravity
TTITLE2=how it gets in the blood
TTITLE3=germ welfare
TTITLE4=front toward enemy
TTITLE5=rapture of the deep
TTITLE6=trials
TTITLE7=infestation of man
TTITLE8=dual wield the needler
TTITLE9=shadow of the colossus
TTITLE10=our bellies sluggish with goat meat
EXTD=
EXTT0=
EXTT1=
EXTT2=
EXTT3=
EXTT4=
EXTT5=
EXTT6=
EXTT7=
EXTT8=
EXTT9=
EXTT10=
PLAYORDER=
